<svg id="Layer_1" data-name="Layer 1" xmlns="http://www.w3.org/2000/svg" viewBox="0 0 117.48 117.48"><defs><style>.cls-1{fill:#fce6a2;}.cls-2{fill:#9b82f9;}.cls-3{fill:none;stroke:#fff;stroke-linecap:round;stroke-miterlimit:10;stroke-width:6px;}</style></defs><rect class="cls-1" x="3.74" y="3.74" width="110" height="110" rx="31.85"/><path class="cls-2" d="M113.74,81.89v-30A23.16,23.16,0,0,0,92.88,31L29.47,25A23.15,23.15,0,0,0,4.23,45.84L3.74,51V81.89a31.85,31.85,0,0,0,31.85,31.85h46.3A31.85,31.85,0,0,0,113.74,81.89Z"/><path d="M3.88,84.85a31.84,31.84,0,0,0,31.71,28.89h46.3a31.84,31.84,0,0,0,31.76-29.62l-.4-4.28A23.15,23.15,0,0,0,88,59L24.6,65A23.15,23.15,0,0,0,3.88,84.85Z"/><polyline class="cls-3" points="19.74 88.74 29.74 98.74 49.74 78.74"/></svg>